<svg width="1440" height="3040" viewBox="0 0 1440 3040" xmlns="http://www.w3.org/2000/svg"><style>
        text {
          font-family: system-ui, sans-serif;
          fill: #000;
        }
        .bg {
          fill: #fff;
        }
        .icon {
          fill: #000;
          opacity: 0.8;
        }

        /* header/sidebar styles */
        .header {
          fill: #f8f8f8;
        }
        .headerDate {
          font-size: 14px;
          font-weight: bold;
        }
        .logoIcon {
          fill: #4660F9;
        }
        .tick {
          fill: #666;
          font-weight: bold;
        }
        .tickLine {
          stroke: #666;
        }
        .sidebarDivider {
          stroke: #ddd;
        }

        /* track styles */
        .boxText {
          opacity: 0.7;
        }
        .date {
          fill: #999;
          font-size: 12px;
        }
        .progressOuter {
          fill: rgba(255,255,255,0.3);
        }
        .progressInner {
          fill: rgba(0,0,0,0.5);
        }
        .closedGroup &gt; text, .closedGroup &gt; use {
          fill: #999;
        }
        .subtext {
          opacity: 0.7;
        }

        /* nested track styles */
        .nestedBox {
          opacity: 0.6;
        }
        .nestedBg {
          fill: #f8f8f8;
        }
      </style><defs><filter id="shadow"><feDropShadow dx="0" dy="1" stdDeviation="1" flood-color="#ccc"></feDropShadow></filter><clipPath id="dont-overlap-sidebar"><rect x="350" y="0" width="1090" height="3040"></rect></clipPath><clipPath id="sidebar-contents"><rect x="0" y="0" width="350" height="3040"></rect></clipPath><linearGradient id="sidebarShadow" x1="0%" y1="0%" x2="100%" y2="0%"><stop offset="0%" style="stop-color: rgb(100, 100, 100); stop-opacity: 0.15;"></stop><stop offset="100%" style="stop-color: rgb(100, 100, 100); stop-opacity: 0;"></stop></linearGradient><path id="projectIcon" d="M4 4v2h8V4zm0-2h8a2 2 0 012 2v2a2 2 0 01-2 2H4a2 2 0 01-2-2V4a2 2 0 012-2zm4 9v2h12v-2zm0-2h12a2 2 0 012 2v2a2 2 0 01-2 2H8a2 2 0 01-2-2v-2a2 2 0 012-2zm-4 9v2h3v-2zm0-2h3a2 2 0 012 2v2a2 2 0 01-2 2H4a2 2 0 01-2-2v-2a2 2 0 012-2z" transform="scale(0.7)"></path><path id="epicIcon" d="M4.667 2A.667.667 0 004 2.667v11.231l3.12-2.738a1.333 1.333 0 011.76 0L12 13.898V2.667A.667.667 0 0011.333 2zM11.333.667a2 2 0 012 2v11.231a1.333 1.333 0 01-2.212 1.003L8 12.163 4.88 14.9a1.333 1.333 0 01-2.213-1.003V2.667a2 2 0 012-2zM9.667 3.333H6v6h4V8H7.333V7h2V5.667h-2v-1h2.334z"></path><path id="epicIconClosed" d="M12 8.04a.667.667 0 111.333 0v5.778a1.333 1.333 0 01-2.234.983L8 11.96 4.901 14.8a1.333 1.333 0 01-2.234-.982V2.667a2 2 0 012-2h3.349a.667.667 0 110 1.333h-3.35A.667.667 0 004 2.667v11.15l3.099-2.84a1.333 1.333 0 011.802 0L12 13.817zM9.805 3.529l.862.862 2.862-2.862a.667.667 0 11.942.942l-3.333 3.334a.667.667 0 01-.943 0L8.862 4.47a.667.667 0 11.943-.942z"></path><path id="zhLogo" d="M11.228 3.727V1.076H.327v2.651h7.229L.168 12.928v2.674h11.22v-2.674h-7.57zm5.644.702c-3.127 0-5.484 2.583-5.484 5.756 0 3.152 2.449 5.735 5.826 5.735 1.835 0 3.376-.748 4.192-1.7l-1.428-1.882a3.686 3.686 0 01-2.651 1.134c-1.678 0-2.833-1.088-3.106-2.607h8.046c.045-.18.068-.566.068-.906 0-3.127-2.358-5.53-5.463-5.53zm-2.605 4.69c.318-1.382 1.269-2.334 2.652-2.334 1.292 0 2.266.793 2.583 2.334h-5.235zm42.975 1.497c0 1.586-.929 2.651-2.312 2.651-1.383 0-2.312-1.065-2.312-2.651v-5.87h-2.766v6.074c0 3.037 2.017 5.055 5.077 5.055s5.078-2.017 5.078-5.055V4.746h-2.765v5.87zM67.894 4.43v-.002c-1.405 0-2.516.566-3.308 1.496V.008H61.82v15.594h2.765v-1.087c.77.884 1.88 1.405 3.308 1.405 3.015 0 5.213-2.47 5.213-5.757 0-3.377-2.334-5.734-5.213-5.734zm-.43 8.884c-1.654 0-2.878-1.383-2.878-3.128s1.224-3.15 2.878-3.15c1.677 0 2.878 1.405 2.878 3.15 0 1.746-1.2 3.128-2.878 3.128zm-38.749-8.9c-2.976 0-4.938 2.018-4.938 5.054v6.075h2.69v-5.87c0-1.587.904-2.652 2.248-2.652 1.344 0 2.247 1.065 2.247 2.651v5.871h2.69V9.468c0-3.037-1.962-5.054-4.937-5.054zm16.376 2.44H38.18v-5.78h-2.834v14.527h2.834V9.505h6.912V15.6h2.855V1.075h-2.855z"></path></defs><rect x="0" y="0" width="1440" height="3040" class="bg"></rect><g class="track"><title>Evaluación Económica</title><g class="" clip-path="url(#sidebar-contents)"><use href="#projectIcon" x="20" y="76" class="icon"></use><text x="40" y="88">Evaluación Económica</text><text x="20" y="106" class="date">May 22 - Jun 1</text><line x1="0" x2="1440" y1="124" y2="124" stroke="#e7e7e7"></line></g><rect x="766.1458333333333" y="66" width="61.84210526315792" height="50" rx="2" clip-path="url(#dont-overlap-sidebar)" style="filter: url(&quot;#shadow&quot;); fill: rgb(182, 162, 221);"></rect><g class=""><use href="#projectIcon" x="776.1458333333333" y="81" class="icon"></use><text x="796.1458333333333" y="94" class="boxText" clip-path="url(#dont-overlap-sidebar)">Evaluación Económica<tspan class="subtext">– No Epics yet</tspan></text></g></g><g class="track"><title>Generación Propuesta Económica</title><rect x="0" y="124" width="1440" height="66" class="nestedBg"></rect><g class="" clip-path="url(#sidebar-contents)"><use href="#epicIcon" x="40" y="142" class="icon"></use><text x="60" y="154">Generación Propuesta Económica</text><text x="40" y="172" class="date">May 22 - May 31</text><line x1="0" x2="1440" y1="190" y2="190" stroke="#e7e7e7"></line></g><rect x="766.1458333333333" y="132" width="55.65789473684231" height="50" rx="2" class="nestedBox" clip-path="url(#dont-overlap-sidebar)" style="filter: url(&quot;#shadow&quot;); fill: rgb(182, 162, 221);"></rect><g class=""><use href="#epicIcon" x="776.1458333333333" y="147" class="icon"></use><text x="796.1458333333333" y="160" class="boxText" clip-path="url(#dont-overlap-sidebar)">Generación Propuesta Económica<tspan class="subtext"></tspan></text></g></g><g class="track"><title>Planeación del Proyecto</title><g class="" clip-path="url(#sidebar-contents)"><use href="#projectIcon" x="20" y="208" class="icon"></use><text x="40" y="220">Planeación del Proyecto</text><text x="20" y="238" class="date">Mar 17 - Jul 21</text><line x1="0" x2="1440" y1="256" y2="256" stroke="#e7e7e7"></line></g><rect x="357.98793859649123" y="198" width="779.2105263157896" height="50" rx="2" clip-path="url(#dont-overlap-sidebar)" style="filter: url(&quot;#shadow&quot;); fill: rgb(200, 205, 234);"></rect><g class=""><use href="#projectIcon" x="367.98793859649123" y="213" class="icon"></use><text x="387.98793859649123" y="226" class="boxText" clip-path="url(#dont-overlap-sidebar)">Planeación del Proyecto<tspan class="subtext">– No Epics yet</tspan></text></g></g><g class="track"><title>Convención Flujo de información</title><rect x="0" y="256" width="1440" height="66" class="nestedBg"></rect><g class="" clip-path="url(#sidebar-contents)"><use href="#epicIcon" x="40" y="274" class="icon"></use><text x="60" y="286">Convención Flujo de información</text><text x="40" y="304" class="date">Mar 17 - Mar 28</text><line x1="0" x2="1440" y1="322" y2="322" stroke="#e7e7e7"></line></g><rect x="357.98793859649123" y="264" width="68.0263157894737" height="50" rx="2" class="nestedBox" clip-path="url(#dont-overlap-sidebar)" style="filter: url(&quot;#shadow&quot;); fill: rgb(200, 205, 234);"></rect><g class=""><use href="#epicIcon" x="367.98793859649123" y="279" class="icon"></use><text x="387.98793859649123" y="292" class="boxText" clip-path="url(#dont-overlap-sidebar)">Convención Flujo de información<tspan class="subtext"></tspan></text></g></g><g class="track"><title>Leer Documento Base</title><rect x="0" y="322" width="1440" height="66" class="nestedBg"></rect><g class="" clip-path="url(#sidebar-contents)"><use href="#epicIcon" x="40" y="340" class="icon"></use><text x="60" y="352">Leer Documento Base</text><text x="40" y="370" class="date">Mar 25 - Apr 3</text><line x1="0" x2="1440" y1="388" y2="388" stroke="#e7e7e7"></line></g><rect x="407.46162280701753" y="330" width="55.65789473684214" height="50" rx="2" class="nestedBox" clip-path="url(#dont-overlap-sidebar)" style="filter: url(&quot;#shadow&quot;); fill: rgb(200, 205, 234);"></rect><g class=""><use href="#epicIcon" x="417.46162280701753" y="345" class="icon"></use><text x="437.46162280701753" y="358" class="boxText" clip-path="url(#dont-overlap-sidebar)">Leer Documento Base<tspan class="subtext"></tspan></text></g></g><g class="track"><title>Modelado Bicicleta Playera</title><rect x="0" y="388" width="1440" height="66" class="nestedBg"></rect><g class="" clip-path="url(#sidebar-contents)"><use href="#epicIcon" x="40" y="406" class="icon"></use><text x="60" y="418">Modelado Bicicleta Playera</text><text x="40" y="436" class="date">Apr 28 - May 25</text><line x1="0" x2="1440" y1="454" y2="454" stroke="#e7e7e7"></line></g><rect x="617.7247807017543" y="396" width="166.97368421052647" height="50" rx="2" class="nestedBox" clip-path="url(#dont-overlap-sidebar)" style="filter: url(&quot;#shadow&quot;); fill: rgb(200, 205, 234);"></rect><g class=""><use href="#epicIcon" x="627.7247807017543" y="411" class="icon"></use><text x="647.7247807017543" y="424" class="boxText" clip-path="url(#dont-overlap-sidebar)">Modelado Bicicleta Playera<tspan class="subtext"></tspan></text></g></g><g class="track"><title>Modelado Bicicleta Ruta</title><rect x="0" y="454" width="1440" height="66" class="nestedBg"></rect><g class="" clip-path="url(#sidebar-contents)"><use href="#epicIcon" x="40" y="472" class="icon"></use><text x="60" y="484">Modelado Bicicleta Ruta</text><text x="40" y="502" class="date">May 24 - Jul 21</text><line x1="0" x2="1440" y1="520" y2="520" stroke="#e7e7e7"></line></g><rect x="778.5142543859649" y="462" width="358.68421052631584" height="50" rx="2" class="nestedBox" clip-path="url(#dont-overlap-sidebar)" style="filter: url(&quot;#shadow&quot;); fill: rgb(200, 205, 234);"></rect><g class=""><use href="#epicIcon" x="788.5142543859649" y="477" class="icon"></use><text x="808.5142543859649" y="490" class="boxText" clip-path="url(#dont-overlap-sidebar)">Modelado Bicicleta Ruta<tspan class="subtext"></tspan></text></g></g><g class="track"><title>Celda de Manufactura</title><g class="" clip-path="url(#sidebar-contents)"><use href="#projectIcon" x="20" y="538" class="icon"></use><text x="40" y="550">Celda de Manufactura</text><text x="20" y="568" class="date">Apr 25 - Jul 22</text><line x1="0" x2="1440" y1="586" y2="586" stroke="#e7e7e7"></line></g><rect x="599.172149122807" y="528" width="544.2105263157894" height="50" rx="2" clip-path="url(#dont-overlap-sidebar)" style="filter: url(&quot;#shadow&quot;); fill: rgb(133, 213, 250);"></rect><g class=""><use href="#projectIcon" x="609.172149122807" y="543" class="icon"></use><text x="629.172149122807" y="556" class="boxText" clip-path="url(#dont-overlap-sidebar)">Celda de Manufactura<tspan class="subtext">– No Epics yet</tspan></text></g></g><g class="track"><title>Diseño Celda Robotizada</title><rect x="0" y="586" width="1440" height="66" class="nestedBg"></rect><g class="" clip-path="url(#sidebar-contents)"><use href="#epicIcon" x="40" y="604" class="icon"></use><text x="60" y="616">Diseño Celda Robotizada</text><text x="40" y="634" class="date">Apr 25 - May 1</text><line x1="0" x2="1440" y1="652" y2="652" stroke="#e7e7e7"></line></g><rect x="599.172149122807" y="594" width="37.1052631578948" height="50" rx="2" class="nestedBox" clip-path="url(#dont-overlap-sidebar)" style="filter: url(&quot;#shadow&quot;); fill: rgb(133, 213, 250);"></rect><g class=""><use href="#epicIcon" x="609.172149122807" y="609" class="icon"></use><text x="629.172149122807" y="622" class="boxText" clip-path="url(#dont-overlap-sidebar)">Diseño Celda Robotizada<tspan class="subtext"></tspan></text></g></g><g class="track"><title>Simulación Celda Robotizada</title><rect x="0" y="652" width="1440" height="66" class="nestedBg"></rect><g class="" clip-path="url(#sidebar-contents)"><use href="#epicIcon" x="40" y="670" class="icon"></use><text x="60" y="682">Simulación Celda Robotizada</text><text x="40" y="700" class="date">Apr 30 - May 2</text><line x1="0" x2="1440" y1="718" y2="718" stroke="#e7e7e7"></line></g><rect x="630.093201754386" y="660" width="12.368421052631561" height="50" rx="2" class="nestedBox" clip-path="url(#dont-overlap-sidebar)" style="filter: url(&quot;#shadow&quot;); fill: rgb(133, 213, 250);"></rect><g class=""><use href="#epicIcon" x="640.093201754386" y="675" class="icon"></use><text x="660.093201754386" y="688" class="boxText" clip-path="url(#dont-overlap-sidebar)">Simulación Celda Robotizada<tspan class="subtext"></tspan></text></g></g><g class="track"><title>Controladores Industriales</title><g class="" clip-path="url(#sidebar-contents)"><use href="#projectIcon" x="20" y="736" class="icon"></use><text x="40" y="748">Controladores Industriales</text><text x="20" y="766" class="date">Jul 19 - Aug 7</text><line x1="0" x2="1440" y1="784" y2="784" stroke="#e7e7e7"></line></g><rect x="1124.830043859649" y="726" width="117.5" height="50" rx="2" clip-path="url(#dont-overlap-sidebar)" style="filter: url(&quot;#shadow&quot;); fill: rgb(145, 226, 237);"></rect><g class=""><use href="#projectIcon" x="1134.830043859649" y="741" class="icon"></use><text x="1154.830043859649" y="754" class="boxText" clip-path="url(#dont-overlap-sidebar)">Controladores Industriales<tspan class="subtext">– No Epics yet</tspan></text></g></g><g class="track"><title>Grafcet Planta de Producción</title><rect x="0" y="784" width="1440" height="66" class="nestedBg"></rect><g class="" clip-path="url(#sidebar-contents)"><use href="#epicIcon" x="40" y="802" class="icon"></use><text x="60" y="814">Grafcet Planta de Producción</text><text x="40" y="832" class="date">Jul 19 - Aug 2</text><line x1="0" x2="1440" y1="850" y2="850" stroke="#e7e7e7"></line></g><rect x="1124.830043859649" y="792" width="86.57894736842104" height="50" rx="2" class="nestedBox" clip-path="url(#dont-overlap-sidebar)" style="filter: url(&quot;#shadow&quot;); fill: rgb(145, 226, 237);"></rect><g class=""><use href="#epicIcon" x="1134.830043859649" y="807" class="icon"></use><text x="1154.830043859649" y="820" class="boxText" clip-path="url(#dont-overlap-sidebar)">Grafcet Planta de Producción<tspan class="subtext"></tspan></text></g></g><g class="track"><title>Grafcet Boca de Pescado</title><rect x="0" y="850" width="1440" height="66" class="nestedBg"></rect><g class="" clip-path="url(#sidebar-contents)"><use href="#epicIcon" x="40" y="868" class="icon"></use><text x="60" y="880">Grafcet Boca de Pescado</text><text x="40" y="898" class="date">Jul 22 - Aug 5</text><line x1="0" x2="1440" y1="916" y2="916" stroke="#e7e7e7"></line></g><rect x="1143.3826754385964" y="858" width="86.57894736842127" height="50" rx="2" class="nestedBox" clip-path="url(#dont-overlap-sidebar)" style="filter: url(&quot;#shadow&quot;); fill: rgb(145, 226, 237);"></rect><g class=""><use href="#epicIcon" x="1153.3826754385964" y="873" class="icon"></use><text x="1173.3826754385964" y="886" class="boxText" clip-path="url(#dont-overlap-sidebar)">Grafcet Boca de Pescado<tspan class="subtext"></tspan></text></g></g><g class="track"><title>Grafcet Cortadora de Tubos</title><rect x="0" y="916" width="1440" height="66" class="nestedBg"></rect><g class="" clip-path="url(#sidebar-contents)"><use href="#epicIcon" x="40" y="934" class="icon"></use><text x="60" y="946">Grafcet Cortadora de Tubos</text><text x="40" y="964" class="date">Jul 20 - Aug 7</text><line x1="0" x2="1440" y1="982" y2="982" stroke="#e7e7e7"></line></g><rect x="1131.014254385965" y="924" width="111.31578947368416" height="50" rx="2" class="nestedBox" clip-path="url(#dont-overlap-sidebar)" style="filter: url(&quot;#shadow&quot;); fill: rgb(145, 226, 237);"></rect><g class=""><use href="#epicIcon" x="1141.014254385965" y="939" class="icon"></use><text x="1161.014254385965" y="952" class="boxText" clip-path="url(#dont-overlap-sidebar)">Grafcet Cortadora de Tubos<tspan class="subtext"></tspan></text></g></g><g class="track"><title>Gestión de Producción</title><g class="" clip-path="url(#sidebar-contents)"><use href="#projectIcon" x="20" y="1000" class="icon"></use><text x="40" y="1012">Gestión de Producción</text><text x="20" y="1030" class="date">Mar 22 - Aug 12</text><line x1="0" x2="1440" y1="1048" y2="1048" stroke="#e7e7e7"></line></g><rect x="388.9089912280702" y="990" width="884.3421052631579" height="50" rx="2" clip-path="url(#dont-overlap-sidebar)" style="filter: url(&quot;#shadow&quot;); fill: rgb(182, 162, 221);"></rect><g class=""><use href="#projectIcon" x="398.9089912280702" y="1005" class="icon"></use><text x="418.9089912280702" y="1018" class="boxText" clip-path="url(#dont-overlap-sidebar)">Gestión de Producción<tspan class="subtext">– No Epics yet</tspan></text></g></g><g class="track"><title>Simulación Proceso Manual</title><rect x="0" y="1048" width="1440" height="66" class="nestedBg"></rect><g class="" clip-path="url(#sidebar-contents)"><use href="#epicIcon" x="40" y="1066" class="icon"></use><text x="60" y="1078">Simulación Proceso Manual</text><text x="40" y="1096" class="date">Mar 22 - Apr 25</text><line x1="0" x2="1440" y1="1114" y2="1114" stroke="#e7e7e7"></line></g><rect x="388.9089912280702" y="1056" width="210.26315789473682" height="50" rx="2" class="nestedBox" clip-path="url(#dont-overlap-sidebar)" style="filter: url(&quot;#shadow&quot;); fill: rgb(182, 162, 221);"></rect><g class=""><use href="#epicIcon" x="398.9089912280702" y="1071" class="icon"></use><text x="418.9089912280702" y="1084" class="boxText" clip-path="url(#dont-overlap-sidebar)">Simulación Proceso Manual<tspan class="subtext"></tspan></text></g></g><g class="track"><title>Análisis y Optimización Layout</title><rect x="0" y="1114" width="1440" height="66" class="nestedBg"></rect><g class="" clip-path="url(#sidebar-contents)"><use href="#epicIcon" x="40" y="1132" class="icon"></use><text x="60" y="1144">Análisis y Optimización Layout</text><text x="40" y="1162" class="date">Apr 25 - May 7</text><line x1="0" x2="1440" y1="1180" y2="1180" stroke="#e7e7e7"></line></g><rect x="599.172149122807" y="1122" width="74.21052631578948" height="50" rx="2" class="nestedBox" clip-path="url(#dont-overlap-sidebar)" style="filter: url(&quot;#shadow&quot;); fill: rgb(182, 162, 221);"></rect><g class=""><use href="#epicIcon" x="609.172149122807" y="1137" class="icon"></use><text x="629.172149122807" y="1150" class="boxText" clip-path="url(#dont-overlap-sidebar)">Análisis y Optimización Layout<tspan class="subtext"></tspan></text></g></g><g class="track"><title>Simulación Proceso Automatizado</title><rect x="0" y="1180" width="1440" height="66" class="nestedBg"></rect><g class="" clip-path="url(#sidebar-contents)"><use href="#epicIcon" x="40" y="1198" class="icon"></use><text x="60" y="1210">Simulación Proceso Automatizado</text><text x="40" y="1228" class="date">Aug 1 - Aug 12</text><line x1="0" x2="1440" y1="1246" y2="1246" stroke="#e7e7e7"></line></g><rect x="1205.2247807017543" y="1188" width="68.02631578947376" height="50" rx="2" class="nestedBox" clip-path="url(#dont-overlap-sidebar)" style="filter: url(&quot;#shadow&quot;); fill: rgb(182, 162, 221);"></rect><g class=""><use href="#epicIcon" x="1215.2247807017543" y="1203" class="icon"></use><text x="1235.2247807017543" y="1216" class="boxText" clip-path="url(#dont-overlap-sidebar)">Simulación Proceso Automatizado<tspan class="subtext"></tspan></text></g></g><g class="track"><title>Digital Factory</title><g class="" clip-path="url(#sidebar-contents)"><use href="#projectIcon" x="20" y="1264" class="icon"></use><text x="40" y="1276">Digital Factory</text><text x="20" y="1294" class="date">Jun 26 - Aug 12</text><line x1="0" x2="1440" y1="1312" y2="1312" stroke="#e7e7e7"></line></g><rect x="982.593201754386" y="1254" width="290.6578947368421" height="50" rx="2" clip-path="url(#dont-overlap-sidebar)" style="filter: url(&quot;#shadow&quot;); fill: rgb(200, 205, 234);"></rect><g class=""><use href="#projectIcon" x="992.593201754386" y="1269" class="icon"></use><text x="1012.593201754386" y="1282" class="boxText" clip-path="url(#dont-overlap-sidebar)">Digital Factory<tspan class="subtext">– No Epics yet</tspan></text></g></g><g class="track"><title>Modelado Boca de Pescado</title><rect x="0" y="1312" width="1440" height="66" class="nestedBg"></rect><g class="" clip-path="url(#sidebar-contents)"><use href="#epicIcon" x="40" y="1330" class="icon"></use><text x="60" y="1342">Modelado Boca de Pescado</text><text x="40" y="1360" class="date">Jun 27 - Jul 11</text><line x1="0" x2="1440" y1="1378" y2="1378" stroke="#e7e7e7"></line></g><rect x="988.7774122807017" y="1320" width="86.57894736842093" height="50" rx="2" class="nestedBox" clip-path="url(#dont-overlap-sidebar)" style="filter: url(&quot;#shadow&quot;); fill: rgb(200, 205, 234);"></rect><g class=""><use href="#epicIcon" x="998.7774122807017" y="1335" class="icon"></use><text x="1018.7774122807017" y="1348" class="boxText" clip-path="url(#dont-overlap-sidebar)">Modelado Boca de Pescado<tspan class="subtext"></tspan></text></g></g><g class="track"><title>Simulación Boca de Pescado(NX)</title><rect x="0" y="1378" width="1440" height="66" class="nestedBg"></rect><g class="" clip-path="url(#sidebar-contents)"><use href="#epicIcon" x="40" y="1396" class="icon"></use><text x="60" y="1408">Simulación Boca de Pescado(NX)</text><text x="40" y="1426" class="date">Jul 25 - Jul 31</text><line x1="0" x2="1440" y1="1444" y2="1444" stroke="#e7e7e7"></line></g><rect x="1161.935307017544" y="1386" width="37.10526315789457" height="50" rx="2" class="nestedBox" clip-path="url(#dont-overlap-sidebar)" style="filter: url(&quot;#shadow&quot;); fill: rgb(200, 205, 234);"></rect><g class=""><use href="#epicIcon" x="1171.935307017544" y="1401" class="icon"></use><text x="1191.935307017544" y="1414" class="boxText" clip-path="url(#dont-overlap-sidebar)">Simulación Boca de Pescado(NX)<tspan class="subtext"></tspan></text></g></g><g class="track"><title>Modelado Cortadora de Tubos</title><rect x="0" y="1444" width="1440" height="66" class="nestedBg"></rect><g class="" clip-path="url(#sidebar-contents)"><use href="#epicIcon" x="40" y="1462" class="icon"></use><text x="60" y="1474">Modelado Cortadora de Tubos</text><text x="40" y="1492" class="date">Jun 27 - Aug 10</text><line x1="0" x2="1440" y1="1510" y2="1510" stroke="#e7e7e7"></line></g><rect x="988.7774122807017" y="1452" width="272.1052631578947" height="50" rx="2" class="nestedBox" clip-path="url(#dont-overlap-sidebar)" style="filter: url(&quot;#shadow&quot;); fill: rgb(200, 205, 234);"></rect><g class=""><use href="#epicIcon" x="998.7774122807017" y="1467" class="icon"></use><text x="1018.7774122807017" y="1480" class="boxText" clip-path="url(#dont-overlap-sidebar)">Modelado Cortadora de Tubos<tspan class="subtext"></tspan></text></g></g><g class="track"><title>Simulación Cortadora de Tubos(NX)</title><rect x="0" y="1510" width="1440" height="66" class="nestedBg"></rect><g class="" clip-path="url(#sidebar-contents)"><use href="#epicIcon" x="40" y="1528" class="icon"></use><text x="60" y="1540">Simulación Cortadora de Tubos(NX)</text><text x="40" y="1558" class="date">Aug 1 - Aug 12</text><line x1="0" x2="1440" y1="1576" y2="1576" stroke="#e7e7e7"></line></g><rect x="1205.2247807017543" y="1518" width="68.02631578947376" height="50" rx="2" class="nestedBox" clip-path="url(#dont-overlap-sidebar)" style="filter: url(&quot;#shadow&quot;); fill: rgb(200, 205, 234);"></rect><g class=""><use href="#epicIcon" x="1215.2247807017543" y="1533" class="icon"></use><text x="1235.2247807017543" y="1546" class="boxText" clip-path="url(#dont-overlap-sidebar)">Simulación Cortadora de Tubos(NX)<tspan class="subtext"></tspan></text></g></g><g class="track"><title>Actuadores de Automatización</title><g class="" clip-path="url(#sidebar-contents)"><use href="#projectIcon" x="20" y="1594" class="icon"></use><text x="40" y="1606">Actuadores de Automatización</text><text x="20" y="1624" class="date">Jul 12 - Aug 13</text><line x1="0" x2="1440" y1="1642" y2="1642" stroke="#e7e7e7"></line></g><rect x="1081.5405701754385" y="1584" width="197.89473684210543" height="50" rx="2" clip-path="url(#dont-overlap-sidebar)" style="filter: url(&quot;#shadow&quot;); fill: rgb(133, 213, 250);"></rect><g class=""><use href="#projectIcon" x="1091.5405701754385" y="1599" class="icon"></use><text x="1111.5405701754385" y="1612" class="boxText" clip-path="url(#dont-overlap-sidebar)">Actuadores de Automatización<tspan class="subtext">– No Epics yet</tspan></text></g></g><g class="track"><title>Actuadores Boca de Pescado</title><rect x="0" y="1642" width="1440" height="66" class="nestedBg"></rect><g class="" clip-path="url(#sidebar-contents)"><use href="#epicIcon" x="40" y="1660" class="icon"></use><text x="60" y="1672">Actuadores Boca de Pescado</text><text x="40" y="1690" class="date">Jul 12 - Jul 17</text><line x1="0" x2="1440" y1="1708" y2="1708" stroke="#e7e7e7"></line></g><rect x="1081.5405701754385" y="1650" width="30.921052631579187" height="50" rx="2" class="nestedBox" clip-path="url(#dont-overlap-sidebar)" style="filter: url(&quot;#shadow&quot;); fill: rgb(133, 213, 250);"></rect><g class=""><use href="#epicIcon" x="1091.5405701754385" y="1665" class="icon"></use><text x="1111.5405701754385" y="1678" class="boxText" clip-path="url(#dont-overlap-sidebar)">Actuadores Boca de Pescado<tspan class="subtext"></tspan></text></g></g><g class="track"><title>Actuadores Corte de Tubos</title><rect x="0" y="1708" width="1440" height="66" class="nestedBg"></rect><g class="" clip-path="url(#sidebar-contents)"><use href="#epicIcon" x="40" y="1726" class="icon"></use><text x="60" y="1738">Actuadores Corte de Tubos</text><text x="40" y="1756" class="date">Jul 18 - Aug 5</text><line x1="0" x2="1440" y1="1774" y2="1774" stroke="#e7e7e7"></line></g><rect x="1118.6458333333335" y="1716" width="111.31578947368416" height="50" rx="2" class="nestedBox" clip-path="url(#dont-overlap-sidebar)" style="filter: url(&quot;#shadow&quot;); fill: rgb(133, 213, 250);"></rect><g class=""><use href="#epicIcon" x="1128.6458333333335" y="1731" class="icon"></use><text x="1148.6458333333335" y="1744" class="boxText" clip-path="url(#dont-overlap-sidebar)">Actuadores Corte de Tubos<tspan class="subtext"></tspan></text></g></g><g class="track"><title>Diagramas de Circuitos</title><rect x="0" y="1774" width="1440" height="66" class="nestedBg"></rect><g class="" clip-path="url(#sidebar-contents)"><use href="#epicIcon" x="40" y="1792" class="icon"></use><text x="60" y="1804">Diagramas de Circuitos</text><text x="40" y="1822" class="date">Aug 9 - Aug 13</text><line x1="0" x2="1440" y1="1840" y2="1840" stroke="#e7e7e7"></line></g><rect x="1254.6984649122808" y="1782" width="24.736842105263122" height="50" rx="2" class="nestedBox" clip-path="url(#dont-overlap-sidebar)" style="filter: url(&quot;#shadow&quot;); fill: rgb(133, 213, 250);"></rect><g class=""><use href="#epicIcon" x="1264.6984649122808" y="1797" class="icon"></use><text x="1284.6984649122808" y="1810" class="boxText" clip-path="url(#dont-overlap-sidebar)">Diagramas de Circuitos<tspan class="subtext"></tspan></text></g></g><g class="track"><title>Diagramas Eléctricos</title><rect x="0" y="1840" width="1440" height="66" class="nestedBg"></rect><g class="" clip-path="url(#sidebar-contents)"><use href="#epicIcon" x="40" y="1858" class="icon"></use><text x="60" y="1870">Diagramas Eléctricos</text><text x="40" y="1888" class="date">Aug 9 - Aug 13</text><line x1="0" x2="1440" y1="1906" y2="1906" stroke="#e7e7e7"></line></g><rect x="1254.6984649122808" y="1848" width="24.736842105263122" height="50" rx="2" class="nestedBox" clip-path="url(#dont-overlap-sidebar)" style="filter: url(&quot;#shadow&quot;); fill: rgb(133, 213, 250);"></rect><g class=""><use href="#epicIcon" x="1264.6984649122808" y="1863" class="icon"></use><text x="1284.6984649122808" y="1876" class="boxText" clip-path="url(#dont-overlap-sidebar)">Diagramas Eléctricos<tspan class="subtext"></tspan></text></g></g><g class="track"><title>Industria 4.0</title><g class="" clip-path="url(#sidebar-contents)"><use href="#projectIcon" x="20" y="1924" class="icon"></use><text x="40" y="1936">Industria 4.0</text><text x="20" y="1954" class="date">Jun 2 - Aug 14</text><line x1="0" x2="1440" y1="1972" y2="1972" stroke="#e7e7e7"></line></g><rect x="834.172149122807" y="1914" width="451.4473684210527" height="50" rx="2" clip-path="url(#dont-overlap-sidebar)" style="filter: url(&quot;#shadow&quot;); fill: rgb(145, 226, 237);"></rect><g class=""><use href="#projectIcon" x="844.172149122807" y="1929" class="icon"></use><text x="864.172149122807" y="1942" class="boxText" clip-path="url(#dont-overlap-sidebar)">Industria 4.0<tspan class="subtext">– No Epics yet</tspan></text></g></g><g class="track"><title>Creación Instancia en IBM</title><rect x="0" y="1972" width="1440" height="66" class="nestedBg"></rect><g class="" clip-path="url(#sidebar-contents)"><use href="#epicIcon" x="40" y="1990" class="icon"></use><text x="60" y="2002">Creación Instancia en IBM</text><text x="40" y="2020" class="date">Jun 13 - Jun 26</text><line x1="0" x2="1440" y1="2038" y2="2038" stroke="#e7e7e7"></line></g><rect x="902.1984649122808" y="1980" width="80.3947368421052" height="50" rx="2" class="nestedBox" clip-path="url(#dont-overlap-sidebar)" style="filter: url(&quot;#shadow&quot;); fill: rgb(145, 226, 237);"></rect><g class=""><use href="#epicIcon" x="912.1984649122808" y="1995" class="icon"></use><text x="932.1984649122808" y="2008" class="boxText" clip-path="url(#dont-overlap-sidebar)">Creación Instancia en IBM<tspan class="subtext"></tspan></text></g></g><g class="track"><title>Montaje Ignition en la Nube</title><rect x="0" y="2038" width="1440" height="66" class="nestedBg"></rect><g class="" clip-path="url(#sidebar-contents)"><use href="#epicIcon" x="40" y="2056" class="icon"></use><text x="60" y="2068">Montaje Ignition en la Nube</text><text x="40" y="2086" class="date">Jun 14 - Jul 4</text><line x1="0" x2="1440" y1="2104" y2="2104" stroke="#e7e7e7"></line></g><rect x="908.3826754385965" y="2046" width="123.68421052631572" height="50" rx="2" class="nestedBox" clip-path="url(#dont-overlap-sidebar)" style="filter: url(&quot;#shadow&quot;); fill: rgb(145, 226, 237);"></rect><g class=""><use href="#epicIcon" x="918.3826754385965" y="2061" class="icon"></use><text x="938.3826754385965" y="2074" class="boxText" clip-path="url(#dont-overlap-sidebar)">Montaje Ignition en la Nube<tspan class="subtext"></tspan></text></g></g><g class="track"><title>Topología de Red de la Solución Propuesta</title><rect x="0" y="2104" width="1440" height="66" class="nestedBg"></rect><g class="" clip-path="url(#sidebar-contents)"><use href="#epicIcon" x="40" y="2122" class="icon"></use><text x="60" y="2134">Topología de Red de la Solución Propu…</text><text x="40" y="2152" class="date">Jul 28 - Aug 13</text><line x1="0" x2="1440" y1="2170" y2="2170" stroke="#e7e7e7"></line></g><rect x="1180.4879385964914" y="2112" width="98.94736842105249" height="50" rx="2" class="nestedBox" clip-path="url(#dont-overlap-sidebar)" style="filter: url(&quot;#shadow&quot;); fill: rgb(145, 226, 237);"></rect><g class=""><use href="#epicIcon" x="1190.4879385964914" y="2127" class="icon"></use><text x="1210.4879385964914" y="2140" class="boxText" clip-path="url(#dont-overlap-sidebar)">Topología de Red de la Solución Propuesta<tspan class="subtext"></tspan></text></g></g><g class="track"><title>Comunicación MQTT Ignition Nube</title><rect x="0" y="2170" width="1440" height="66" class="nestedBg"></rect><g class="" clip-path="url(#sidebar-contents)"><use href="#epicIcon" x="40" y="2188" class="icon"></use><text x="60" y="2200">Comunicación MQTT Ignition Nube</text><text x="40" y="2218" class="date">Aug 10 - Aug 14</text><line x1="0" x2="1440" y1="2236" y2="2236" stroke="#e7e7e7"></line></g><rect x="1260.8826754385964" y="2178" width="24.73684210526335" height="50" rx="2" class="nestedBox" clip-path="url(#dont-overlap-sidebar)" style="filter: url(&quot;#shadow&quot;); fill: rgb(145, 226, 237);"></rect><g class=""><use href="#epicIcon" x="1270.8826754385964" y="2193" class="icon"></use><text x="1290.8826754385964" y="2206" class="boxText" clip-path="url(#dont-overlap-sidebar)">Comunicación MQTT Ignition Nube<tspan class="subtext"></tspan></text></g></g><g class="track"><title>SCADA</title><g class="" clip-path="url(#sidebar-contents)"><use href="#projectIcon" x="20" y="2254" class="icon"></use><text x="40" y="2266">SCADA</text><text x="20" y="2284" class="date">Jul 21 - Aug 15</text><line x1="0" x2="1440" y1="2302" y2="2302" stroke="#e7e7e7"></line></g><rect x="1137.1984649122808" y="2244" width="154.6052631578948" height="50" rx="2" clip-path="url(#dont-overlap-sidebar)" style="filter: url(&quot;#shadow&quot;); fill: rgb(182, 162, 221);"></rect><g class=""><use href="#projectIcon" x="1147.1984649122808" y="2259" class="icon"></use><text x="1167.1984649122808" y="2272" class="boxText" clip-path="url(#dont-overlap-sidebar)">SCADA<tspan class="subtext">– No Epics yet</tspan></text></g></g><g class="track"><title>HMI Boca de Pescado</title><rect x="0" y="2302" width="1440" height="66" class="nestedBg"></rect><g class="" clip-path="url(#sidebar-contents)"><use href="#epicIcon" x="40" y="2320" class="icon"></use><text x="60" y="2332">HMI Boca de Pescado</text><text x="40" y="2350" class="date">Aug 1 - Aug 7</text><line x1="0" x2="1440" y1="2368" y2="2368" stroke="#e7e7e7"></line></g><rect x="1205.2247807017543" y="2310" width="37.1052631578948" height="50" rx="2" class="nestedBox" clip-path="url(#dont-overlap-sidebar)" style="filter: url(&quot;#shadow&quot;); fill: rgb(182, 162, 221);"></rect><g class=""><use href="#epicIcon" x="1215.2247807017543" y="2325" class="icon"></use><text x="1235.2247807017543" y="2338" class="boxText" clip-path="url(#dont-overlap-sidebar)">HMI Boca de Pescado<tspan class="subtext"></tspan></text></g></g><g class="track"><title>HMI Cortadora de Tubos</title><rect x="0" y="2368" width="1440" height="66" class="nestedBg"></rect><g class="" clip-path="url(#sidebar-contents)"><use href="#epicIcon" x="40" y="2386" class="icon"></use><text x="60" y="2398">HMI Cortadora de Tubos</text><text x="40" y="2416" class="date">Aug 7 - Aug 12</text><line x1="0" x2="1440" y1="2434" y2="2434" stroke="#e7e7e7"></line></g><rect x="1242.330043859649" y="2376" width="30.92105263157896" height="50" rx="2" class="nestedBox" clip-path="url(#dont-overlap-sidebar)" style="filter: url(&quot;#shadow&quot;); fill: rgb(182, 162, 221);"></rect><g class=""><use href="#epicIcon" x="1252.330043859649" y="2391" class="icon"></use><text x="1272.330043859649" y="2404" class="boxText" clip-path="url(#dont-overlap-sidebar)">HMI Cortadora de Tubos<tspan class="subtext"></tspan></text></g></g><g class="track"><title>HMI Celda Robotizada</title><rect x="0" y="2434" width="1440" height="66" class="nestedBg"></rect><g class="" clip-path="url(#sidebar-contents)"><use href="#epicIcon" x="40" y="2452" class="icon"></use><text x="60" y="2464">HMI Celda Robotizada</text><text x="40" y="2482" class="date">Aug 7 - Aug 12</text><line x1="0" x2="1440" y1="2500" y2="2500" stroke="#e7e7e7"></line></g><rect x="1242.330043859649" y="2442" width="30.92105263157896" height="50" rx="2" class="nestedBox" clip-path="url(#dont-overlap-sidebar)" style="filter: url(&quot;#shadow&quot;); fill: rgb(182, 162, 221);"></rect><g class=""><use href="#epicIcon" x="1252.330043859649" y="2457" class="icon"></use><text x="1272.330043859649" y="2470" class="boxText" clip-path="url(#dont-overlap-sidebar)">HMI Celda Robotizada<tspan class="subtext"></tspan></text></g></g><g class="track"><title>HMI Cadena de Producción</title><rect x="0" y="2500" width="1440" height="66" class="nestedBg"></rect><g class="" clip-path="url(#sidebar-contents)"><use href="#epicIcon" x="40" y="2518" class="icon"></use><text x="60" y="2530">HMI Cadena de Producción</text><text x="40" y="2548" class="date">Aug 10 - Aug 14</text><line x1="0" x2="1440" y1="2566" y2="2566" stroke="#e7e7e7"></line></g><rect x="1260.8826754385964" y="2508" width="24.73684210526335" height="50" rx="2" class="nestedBox" clip-path="url(#dont-overlap-sidebar)" style="filter: url(&quot;#shadow&quot;); fill: rgb(182, 162, 221);"></rect><g class=""><use href="#epicIcon" x="1270.8826754385964" y="2523" class="icon"></use><text x="1290.8826754385964" y="2536" class="boxText" clip-path="url(#dont-overlap-sidebar)">HMI Cadena de Producción<tspan class="subtext"></tspan></text></g></g><g class="track"><title>Integración de Conceptos</title><g class="" clip-path="url(#sidebar-contents)"><use href="#projectIcon" x="20" y="2584" class="icon"></use><text x="40" y="2596">Integración de Conceptos</text><text x="20" y="2614" class="date">May 18 - Aug 16</text><line x1="0" x2="1440" y1="2632" y2="2632" stroke="#e7e7e7"></line></g><rect x="741.4089912280701" y="2574" width="556.5789473684213" height="50" rx="2" clip-path="url(#dont-overlap-sidebar)" style="filter: url(&quot;#shadow&quot;); fill: rgb(200, 205, 234);"></rect><g class=""><use href="#projectIcon" x="751.4089912280701" y="2589" class="icon"></use><text x="771.4089912280701" y="2602" class="boxText" clip-path="url(#dont-overlap-sidebar)">Integración de Conceptos<tspan class="subtext">– No Epics yet</tspan></text></g></g><g class="track"><title>Simulación Boca de Pescado</title><rect x="0" y="2632" width="1440" height="66" class="nestedBg"></rect><g class="" clip-path="url(#sidebar-contents)"><use href="#epicIcon" x="40" y="2650" class="icon"></use><text x="60" y="2662">Simulación Boca de Pescado</text><text x="40" y="2680" class="date">Aug 1 - Aug 7</text><line x1="0" x2="1440" y1="2698" y2="2698" stroke="#e7e7e7"></line></g><rect x="1205.2247807017543" y="2640" width="37.1052631578948" height="50" rx="2" class="nestedBox" clip-path="url(#dont-overlap-sidebar)" style="filter: url(&quot;#shadow&quot;); fill: rgb(200, 205, 234);"></rect><g class=""><use href="#epicIcon" x="1215.2247807017543" y="2655" class="icon"></use><text x="1235.2247807017543" y="2668" class="boxText" clip-path="url(#dont-overlap-sidebar)">Simulación Boca de Pescado<tspan class="subtext"></tspan></text></g></g><g class="track"><title>Simulación Corte de Tubos</title><rect x="0" y="2698" width="1440" height="66" class="nestedBg"></rect><g class="" clip-path="url(#sidebar-contents)"><use href="#epicIcon" x="40" y="2716" class="icon"></use><text x="60" y="2728">Simulación Corte de Tubos</text><text x="40" y="2746" class="date">Aug 7 - Aug 12</text><line x1="0" x2="1440" y1="2764" y2="2764" stroke="#e7e7e7"></line></g><rect x="1242.330043859649" y="2706" width="30.92105263157896" height="50" rx="2" class="nestedBox" clip-path="url(#dont-overlap-sidebar)" style="filter: url(&quot;#shadow&quot;); fill: rgb(200, 205, 234);"></rect><g class=""><use href="#epicIcon" x="1252.330043859649" y="2721" class="icon"></use><text x="1272.330043859649" y="2734" class="boxText" clip-path="url(#dont-overlap-sidebar)">Simulación Corte de Tubos<tspan class="subtext"></tspan></text></g></g><g class="track"><title>Simulación Celda Robotizada</title><rect x="0" y="2764" width="1440" height="66" class="nestedBg"></rect><g class="" clip-path="url(#sidebar-contents)"><use href="#epicIcon" x="40" y="2782" class="icon"></use><text x="60" y="2794">Simulación Celda Robotizada</text><text x="40" y="2812" class="date">Aug 7 - Aug 13</text><line x1="0" x2="1440" y1="2830" y2="2830" stroke="#e7e7e7"></line></g><rect x="1242.330043859649" y="2772" width="37.1052631578948" height="50" rx="2" class="nestedBox" clip-path="url(#dont-overlap-sidebar)" style="filter: url(&quot;#shadow&quot;); fill: rgb(200, 205, 234);"></rect><g class=""><use href="#epicIcon" x="1252.330043859649" y="2787" class="icon"></use><text x="1272.330043859649" y="2800" class="boxText" clip-path="url(#dont-overlap-sidebar)">Simulación Celda Robotizada<tspan class="subtext"></tspan></text></g></g><g class="track"><title>Simulación Cadena de Producción</title><rect x="0" y="2830" width="1440" height="66" class="nestedBg"></rect><g class="" clip-path="url(#sidebar-contents)"><use href="#epicIcon" x="40" y="2848" class="icon"></use><text x="60" y="2860">Simulación Cadena de Producción</text><text x="40" y="2878" class="date">Aug 12 - Aug 14</text><line x1="0" x2="1440" y1="2896" y2="2896" stroke="#e7e7e7"></line></g><rect x="1273.251096491228" y="2838" width="12.368421052631675" height="50" rx="2" class="nestedBox" clip-path="url(#dont-overlap-sidebar)" style="filter: url(&quot;#shadow&quot;); fill: rgb(200, 205, 234);"></rect><g class=""><use href="#epicIcon" x="1283.251096491228" y="2853" class="icon"></use><text x="1303.251096491228" y="2866" class="boxText" clip-path="url(#dont-overlap-sidebar)">Simulación Cadena de Producción<tspan class="subtext"></tspan></text></g></g><g class="track"><title>Diseño de Página Web</title><rect x="0" y="2896" width="1440" height="66" class="nestedBg"></rect><g class="" clip-path="url(#sidebar-contents)"><use href="#epicIcon" x="40" y="2914" class="icon"></use><text x="60" y="2926">Diseño de Página Web</text><text x="40" y="2944" class="date">May 18 - Aug 14</text><line x1="0" x2="1440" y1="2962" y2="2962" stroke="#e7e7e7"></line></g><rect x="741.4089912280701" y="2904" width="544.2105263157896" height="50" rx="2" class="nestedBox" clip-path="url(#dont-overlap-sidebar)" style="filter: url(&quot;#shadow&quot;); fill: rgb(200, 205, 234);"></rect><g class=""><use href="#epicIcon" x="751.4089912280701" y="2919" class="icon"></use><text x="771.4089912280701" y="2932" class="boxText" clip-path="url(#dont-overlap-sidebar)">Diseño de Página Web<tspan class="subtext"></tspan></text></g></g><g class="track"><title>Video con Resultados del Proyecto</title><rect x="0" y="2962" width="1440" height="66" class="nestedBg"></rect><g class="" clip-path="url(#sidebar-contents)"><use href="#epicIcon" x="40" y="2980" class="icon"></use><text x="60" y="2992">Video con Resultados del Proyecto</text><text x="40" y="3010" class="date">Aug 12 - Aug 14</text><line x1="0" x2="1440" y1="3028" y2="3028" stroke="#e7e7e7"></line></g><rect x="1273.251096491228" y="2970" width="12.368421052631675" height="50" rx="2" class="nestedBox" clip-path="url(#dont-overlap-sidebar)" style="filter: url(&quot;#shadow&quot;); fill: rgb(200, 205, 234);"></rect><g class=""><use href="#epicIcon" x="1283.251096491228" y="2985" class="icon"></use><text x="1303.251096491228" y="2998" class="boxText" clip-path="url(#dont-overlap-sidebar)">Video con Resultados del Proyecto<tspan class="subtext"></tspan></text></g></g><g><rect x="0" y="0" width="1440" height="62" class="header" style="filter: url(&quot;#shadow&quot;);"></rect><a href="https://www.zenhub.com"><use href="#zhLogo" x="20" y="12" class="logoIcon"></use></a><text x="20" y="45" class="headerDate">August 11, 2021</text></g><g clip-path="url(#dont-overlap-sidebar)"><text x="263.42105263157896" y="30" class="tick">March 2021</text><text x="455.13157894736844" y="30" class="tick">April 2021</text><text x="640.6578947368421" y="30" class="tick">May 2021</text><text x="832.3684210526317" y="30" class="tick">June 2021</text><text x="1017.8947368421052" y="30" class="tick">July 2021</text><text x="1209.6052631578948" y="30" class="tick">August 2021</text><text x="1401.3157894736842" y="30" class="tick">September 2021</text>;</g><rect x="350" y="0" width="20" height="3040" fill="url(#sidebarShadow)"></rect><line x1="350" x2="350" y1="50" y2="3040" class="sidebarDivider"></line></svg>